<svg viewBox="1 -44 511.999 511" xmlns="http://www.w3.org/2000/svg"><path d="m508.414062 164.34375c-.8125-1.816406-20.382812-44.601562-58.054687-55.21875-7.625-2.148438-15.300781-2.765625-22.714844-2.40625 4.179688-6.136719 7.644531-13.019531 9.792969-20.644531v-.003907c10.613281-37.671874-15.667969-76.699218-16.789062-78.34375l-4.949219-7.226562-7.988281 3.582031c-1.816407.816407-44.605469 20.382813-55.21875 58.058594-9.925782 35.242187 12.425781 71.660156 16.273437 77.5625 3.023437 6.359375 22.421875 44.441406 57.664063 54.371094 6.304687 1.773437 12.648437 2.515625 18.847656 2.515625 30.839844 0 58.125-18.375 59.492187-19.308594l7.230469-4.945312zm0 0" fill="#383838"/><path d="m398.144531 223.890625c0 109.945313-89.128906 199.074219-199.074219 199.074219-109.941406 0-199.070312-89.128906-199.070312-199.074219 0-109.941406 89.128906-199.070313 199.070312-199.070313 109.945313 0 199.074219 89.128907 199.074219 199.070313zm0 0" fill="#474747"/><path d="m398.144531 223.890625c0 109.945313-89.128906 199.074219-199.074219 199.074219 0-101.195313 0-334.539063 0-398.144532 109.945313 0 199.074219 89.128907 199.074219 199.070313zm0 0" fill="#383838"/><path d="m62.574219 222.304688c0-33.40625 27.082031-60.488282 60.488281-60.488282h148.839844c33.40625 0 60.488281 27.082032 60.488281 60.488282s-27.082031 60.484374-60.488281 60.484374h-148.839844c-33.40625 0-60.488281-27.078124-60.488281-60.484374zm0 0" fill="#ffe4c2"/><path d="m199.070312 161.816406h72.832032c33.40625 0 60.488281 27.082032 60.488281 60.488282s-27.082031 60.484374-60.488281 60.484374h-72.832032zm0 0" fill="#f2d1a5"/><path d="m113.644531 220.613281 15-25.980469 50.867188 29.367188-15 25.980469zm0 0" fill="#383838"/><path d="m218.617188 223.992188 50.867187-29.367188 15 25.980469-50.867187 29.367187zm0 0" fill="#2c2c2c"/></svg>